<?xml version="1.0" standalone="no"?>
<!DOCTYPE svg PUBLIC "-//W3C//DTD SVG 20010904//EN"
 "http://www.w3.org/TR/2001/REC-SVG-20010904/DTD/svg10.dtd">
<svg version="1.0" xmlns="http://www.w3.org/2000/svg"
 width="512.000000pt" height="512.000000pt" viewBox="0 0 512.000000 512.000000"
 preserveAspectRatio="xMidYMid meet">
<metadata>
Created by potrace 1.11, written by Peter Selinger 2001-2013
</metadata>
<g transform="translate(0.000000,512.000000) scale(0.100000,-0.100000)"
fill="#000000" stroke="none">
<path d="M415 5110 c-183 -38 -330 -170 -391 -350 -18 -53 -19 -134 -19 -2200
0 -2066 1 -2147 19 -2200 52 -154 168 -274 322 -332 l59 -23 2155 0 2155 0 59
23 c154 58 270 178 322 332 18 53 19 134 19 2200 0 2066 -1 2147 -19 2200 -52
154 -168 274 -322 332 l-59 23 -2130 1 c-1172 1 -2148 -2 -2170 -6z m3742
-846 c34 -26 41 -70 17 -115 -9 -18 -68 -106 -130 -195 -640 -916 -1152 -1893
-1524 -2907 -70 -192 -106 -212 -370 -212 -156 0 -168 1 -215 25 -39 20 -59
39 -90 88 -264 417 -447 659 -750 992 -146 161 -170 196 -160 242 15 66 135
147 270 183 89 23 218 20 272 -6 91 -44 395 -413 618 -751 21 -32 41 -58 45
-58 4 0 37 80 75 178 180 470 469 1095 684 1481 231 413 517 859 598 931 113
102 288 151 525 147 91 -2 111 -5 135 -23z"/>
</g>
</svg>
